<svg xmlns="http://www.w3.org/2000/svg" xmlns:xlink="http://www.w3.org/1999/xlink" width="250" zoomAndPan="magnify" viewBox="0 0 187.5 112.499997" height="150" preserveAspectRatio="xMidYMid meet" version="1.0"><defs><g/><clipPath id="id1"><path d="M 0.164062 0 L 186.835938 0 L 186.835938 112.003906 L 0.164062 112.003906 Z M 0.164062 0 " clip-rule="nonzero"/></clipPath></defs><g clip-path="url(#id1)"><path fill="#ffffff" d="M 0.164062 0 L 187.335938 0 L 187.335938 119.039062 L 0.164062 119.039062 Z M 0.164062 0 " fill-opacity="1" fill-rule="nonzero"/><path fill="#ffffff" d="M 0.164062 0 L 187.335938 0 L 187.335938 112.300781 L 0.164062 112.300781 Z M 0.164062 0 " fill-opacity="1" fill-rule="nonzero"/><path fill="#ffffff" d="M 0.164062 0 L 187.335938 0 L 187.335938 112.300781 L 0.164062 112.300781 Z M 0.164062 0 " fill-opacity="1" fill-rule="nonzero"/><path fill="#ffffff" d="M 0.164062 0 L 187.335938 0 L 187.335938 112.300781 L 0.164062 112.300781 Z M 0.164062 0 " fill-opacity="1" fill-rule="nonzero"/></g><g fill="#5e17eb" fill-opacity="1"><g transform="translate(0.175774, 47.375442)"><g><path d="M 29.953125 -37.640625 C 33.328125 -37.640625 36.382812 -36.820312 39.125 -35.1875 C 41.863281 -33.5625 44.015625 -31.273438 45.578125 -28.328125 C 47.148438 -25.390625 47.9375 -22.003906 47.9375 -18.171875 C 47.9375 -14.378906 47.09375 -11.039062 45.40625 -8.15625 C 43.71875 -5.28125 41.390625 -3.054688 38.421875 -1.484375 C 35.453125 0.0859375 32.132812 0.875 28.46875 0.875 C 25.851562 0.875 23.347656 0.304688 20.953125 -0.828125 C 18.566406 -1.960938 16.644531 -3.492188 15.1875 -5.421875 L 15.1875 17.375 L 7.078125 17.375 L 7.078125 -36.765625 L 14.140625 -36.765625 L 14.84375 -30.65625 C 16.707031 -32.75 18.929688 -34.4375 21.515625 -35.71875 C 24.109375 -37 26.921875 -37.640625 29.953125 -37.640625 Z M 26.890625 -5.671875 C 29.160156 -5.671875 31.269531 -6.207031 33.21875 -7.28125 C 35.175781 -8.363281 36.734375 -9.847656 37.890625 -11.734375 C 39.054688 -13.628906 39.640625 -15.742188 39.640625 -18.078125 C 39.640625 -20.460938 39.101562 -22.613281 38.03125 -24.53125 C 36.957031 -26.457031 35.488281 -27.972656 33.625 -29.078125 C 31.757812 -30.179688 29.691406 -30.734375 27.421875 -30.734375 C 24.335938 -30.734375 21.703125 -29.875 19.515625 -28.15625 C 17.335938 -26.445312 15.894531 -24.132812 15.1875 -21.21875 L 15.1875 -15.1875 C 15.65625 -12.394531 16.976562 -10.109375 19.15625 -8.328125 C 21.34375 -6.554688 23.921875 -5.671875 26.890625 -5.671875 Z M 26.890625 -5.671875 "/></g></g></g><g fill="#5e17eb" fill-opacity="1"><g transform="translate(51.962098, 47.375442)"><g><path d="M 44.1875 -36.15625 L 44.1875 0 L 36.0625 0 L 36.0625 -5.9375 C 34.78125 -4.25 32.914062 -2.691406 30.46875 -1.265625 C 28.03125 0.160156 25.269531 0.875 22.1875 0.875 C 18.75 0.875 15.644531 0.132812 12.875 -1.34375 C 10.113281 -2.832031 7.929688 -5.003906 6.328125 -7.859375 C 4.734375 -10.710938 3.9375 -14.117188 3.9375 -18.078125 C 3.9375 -22.035156 4.765625 -25.484375 6.421875 -28.421875 C 8.078125 -31.359375 10.316406 -33.628906 13.140625 -35.234375 C 15.960938 -36.835938 19.09375 -37.640625 22.53125 -37.640625 C 25.613281 -37.640625 28.289062 -36.96875 30.5625 -35.625 C 32.832031 -34.289062 34.664062 -32.546875 36.0625 -30.390625 L 36.671875 -36.15625 Z M 24.359375 -5.84375 C 27.328125 -5.84375 29.875 -6.671875 32 -8.328125 C 34.125 -9.992188 35.476562 -12.253906 36.0625 -15.109375 L 36.0625 -22.265625 C 35.363281 -24.828125 33.90625 -26.910156 31.6875 -28.515625 C 29.476562 -30.117188 26.953125 -30.921875 24.109375 -30.921875 C 21.953125 -30.921875 19.957031 -30.394531 18.125 -29.34375 C 16.289062 -28.289062 14.832031 -26.816406 13.75 -24.921875 C 12.675781 -23.035156 12.140625 -20.898438 12.140625 -18.515625 C 12.140625 -16.179688 12.691406 -14.050781 13.796875 -12.125 C 14.898438 -10.207031 16.382812 -8.679688 18.25 -7.546875 C 20.113281 -6.410156 22.148438 -5.84375 24.359375 -5.84375 Z M 24.359375 -5.84375 "/></g></g></g><g fill="#5e17eb" fill-opacity="1"><g transform="translate(103.224442, 47.375442)"><g><path d="M 14.9375 -27.59375 C 15.863281 -29.570312 17.1875 -31.316406 18.90625 -32.828125 C 20.625 -34.347656 22.441406 -35.515625 24.359375 -36.328125 C 26.285156 -37.140625 27.972656 -37.578125 29.421875 -37.640625 L 29.078125 -29.515625 C 26.460938 -29.628906 24.09375 -29.101562 21.96875 -27.9375 C 19.84375 -26.78125 18.179688 -25.164062 16.984375 -23.09375 C 15.785156 -21.03125 15.1875 -18.832031 15.1875 -16.5 L 15.1875 0 L 7.078125 0 L 7.078125 -36.15625 L 14.328125 -36.15625 Z M 14.9375 -27.59375 "/></g></g></g><g fill="#5e17eb" fill-opacity="1"><g transform="translate(136.060287, 47.375442)"><g><path d="M 44.1875 -36.15625 L 44.1875 0 L 36.0625 0 L 36.0625 -5.9375 C 34.78125 -4.25 32.914062 -2.691406 30.46875 -1.265625 C 28.03125 0.160156 25.269531 0.875 22.1875 0.875 C 18.75 0.875 15.644531 0.132812 12.875 -1.34375 C 10.113281 -2.832031 7.929688 -5.003906 6.328125 -7.859375 C 4.734375 -10.710938 3.9375 -14.117188 3.9375 -18.078125 C 3.9375 -22.035156 4.765625 -25.484375 6.421875 -28.421875 C 8.078125 -31.359375 10.316406 -33.628906 13.140625 -35.234375 C 15.960938 -36.835938 19.09375 -37.640625 22.53125 -37.640625 C 25.613281 -37.640625 28.289062 -36.96875 30.5625 -35.625 C 32.832031 -34.289062 34.664062 -32.546875 36.0625 -30.390625 L 36.671875 -36.15625 Z M 24.359375 -5.84375 C 27.328125 -5.84375 29.875 -6.671875 32 -8.328125 C 34.125 -9.992188 35.476562 -12.253906 36.0625 -15.109375 L 36.0625 -22.265625 C 35.363281 -24.828125 33.90625 -26.910156 31.6875 -28.515625 C 29.476562 -30.117188 26.953125 -30.921875 24.109375 -30.921875 C 21.953125 -30.921875 19.957031 -30.394531 18.125 -29.34375 C 16.289062 -28.289062 14.832031 -26.816406 13.75 -24.921875 C 12.675781 -23.035156 12.140625 -20.898438 12.140625 -18.515625 C 12.140625 -16.179688 12.691406 -14.050781 13.796875 -12.125 C 14.898438 -10.207031 16.382812 -8.679688 18.25 -7.546875 C 20.113281 -6.410156 22.148438 -5.84375 24.359375 -5.84375 Z M 24.359375 -5.84375 "/></g></g></g><g fill="#000000" fill-opacity="1"><g transform="translate(10.6579, 101.289581)"><g><path d="M 42.046875 -70.421875 L 42.046875 0 L 40.171875 0 L 40.171875 -10.015625 C 38.679688 -6.835938 36.421875 -4.28125 33.390625 -2.34375 C 30.359375 -0.40625 27.003906 0.5625 23.328125 0.5625 C 20.015625 0.5625 16.953125 -0.25 14.140625 -1.875 C 11.328125 -3.5 9.109375 -5.710938 7.484375 -8.515625 C 5.867188 -11.328125 5.0625 -14.421875 5.0625 -17.796875 C 5.0625 -21.359375 5.882812 -24.539062 7.53125 -27.34375 C 9.1875 -30.15625 11.40625 -32.328125 14.1875 -33.859375 C 16.96875 -35.390625 20.046875 -36.15625 23.421875 -36.15625 C 26.972656 -36.15625 30.28125 -35.15625 33.34375 -33.15625 C 36.40625 -31.15625 38.679688 -28.5625 40.171875 -25.375 L 40.171875 -70.421875 Z M 23.5 -1.03125 C 26.5 -1.03125 29.28125 -1.75 31.84375 -3.1875 C 34.40625 -4.625 36.429688 -6.570312 37.921875 -9.03125 C 39.421875 -11.5 40.171875 -14.234375 40.171875 -17.234375 L 40.171875 -20.328125 C 39.734375 -22.941406 38.71875 -25.328125 37.125 -27.484375 C 35.539062 -29.640625 33.5625 -31.359375 31.1875 -32.640625 C 28.8125 -33.921875 26.25 -34.5625 23.5 -34.5625 C 20.445312 -34.5625 17.65625 -33.859375 15.125 -32.453125 C 12.59375 -31.046875 10.59375 -29.0625 9.125 -26.5 C 7.664062 -23.945312 6.9375 -21.046875 6.9375 -17.796875 C 6.9375 -14.734375 7.679688 -11.921875 9.171875 -9.359375 C 10.671875 -6.804688 12.6875 -4.78125 15.21875 -3.28125 C 17.75 -1.78125 20.507812 -1.03125 23.5 -1.03125 Z M 23.5 -1.03125 "/></g></g></g><g fill="#000000" fill-opacity="1"><g transform="translate(61.510955, 101.289581)"><g><path d="M 41.953125 -35.40625 L 41.953125 0 L 40.171875 0 L 40.171875 -10.109375 C 38.867188 -6.992188 36.671875 -4.4375 33.578125 -2.4375 C 30.484375 -0.4375 27.066406 0.5625 23.328125 0.5625 C 20.015625 0.5625 16.953125 -0.25 14.140625 -1.875 C 11.328125 -3.5 9.109375 -5.695312 7.484375 -8.46875 C 5.867188 -11.25 5.0625 -14.328125 5.0625 -17.703125 C 5.0625 -21.515625 5.882812 -24.804688 7.53125 -27.578125 C 9.1875 -30.359375 11.421875 -32.484375 14.234375 -33.953125 C 17.046875 -35.421875 20.164062 -36.15625 23.59375 -36.15625 C 27.21875 -36.15625 30.53125 -35.140625 33.53125 -33.109375 C 36.53125 -31.078125 38.742188 -28.4375 40.171875 -25.1875 L 40.546875 -35.40625 Z M 23.5 -1.03125 C 26.5625 -1.03125 29.359375 -1.71875 31.890625 -3.09375 C 34.421875 -4.46875 36.429688 -6.367188 37.921875 -8.796875 C 39.421875 -11.234375 40.171875 -13.953125 40.171875 -16.953125 L 40.171875 -20.796875 C 39.421875 -24.660156 37.46875 -27.921875 34.3125 -30.578125 C 31.164062 -33.234375 27.5625 -34.5625 23.5 -34.5625 C 20.445312 -34.5625 17.65625 -33.875 15.125 -32.5 C 12.59375 -31.125 10.59375 -29.15625 9.125 -26.59375 C 7.664062 -24.039062 6.9375 -21.109375 6.9375 -17.796875 C 6.9375 -14.734375 7.679688 -11.921875 9.171875 -9.359375 C 10.671875 -6.804688 12.6875 -4.78125 15.21875 -3.28125 C 17.75 -1.78125 20.507812 -1.03125 23.5 -1.03125 Z M 23.5 -1.03125 "/></g></g></g><g fill="#000000" fill-opacity="1"><g transform="translate(112.270357, 101.289581)"><g><path d="M 5.0625 -17.796875 C 5.0625 -21.171875 5.882812 -24.257812 7.53125 -27.0625 C 9.1875 -29.875 11.421875 -32.109375 14.234375 -33.765625 C 17.046875 -35.421875 20.132812 -36.25 23.5 -36.25 C 26.875 -36.25 29.984375 -35.421875 32.828125 -33.765625 C 35.671875 -32.109375 37.914062 -29.875 39.5625 -27.0625 C 41.21875 -24.257812 42.046875 -21.171875 42.046875 -17.796875 C 42.046875 -14.421875 41.21875 -11.328125 39.5625 -8.515625 C 37.914062 -5.710938 35.671875 -3.5 32.828125 -1.875 C 29.984375 -0.25 26.875 0.5625 23.5 0.5625 C 20.132812 0.5625 17.03125 -0.234375 14.1875 -1.828125 C 11.34375 -3.421875 9.109375 -5.617188 7.484375 -8.421875 C 5.867188 -11.234375 5.0625 -14.359375 5.0625 -17.796875 Z M 6.9375 -17.796875 C 6.9375 -14.734375 7.664062 -11.921875 9.125 -9.359375 C 10.59375 -6.804688 12.59375 -4.78125 15.125 -3.28125 C 17.65625 -1.78125 20.445312 -1.03125 23.5 -1.03125 C 26.5 -1.03125 29.265625 -1.78125 31.796875 -3.28125 C 34.328125 -4.78125 36.335938 -6.804688 37.828125 -9.359375 C 39.328125 -11.921875 40.078125 -14.734375 40.078125 -17.796875 C 40.078125 -20.796875 39.328125 -23.585938 37.828125 -26.171875 C 36.335938 -28.765625 34.328125 -30.8125 31.796875 -32.3125 C 29.265625 -33.8125 26.5 -34.5625 23.5 -34.5625 C 20.445312 -34.5625 17.640625 -33.765625 15.078125 -32.171875 C 12.515625 -30.578125 10.515625 -28.484375 9.078125 -25.890625 C 7.648438 -23.304688 6.9375 -20.609375 6.9375 -17.796875 Z M 6.9375 -17.796875 "/></g></g></g></svg>