<svg xmlns="http://www.w3.org/2000/svg" xmlns:xlink="http://www.w3.org/1999/xlink" width="400" zoomAndPan="magnify" viewBox="0 0 300 299.999988" height="400" preserveAspectRatio="xMidYMid meet" version="1.0"><defs><g/><clipPath id="id1"><path d="M 3.558594 3.558594 L 296.207031 3.558594 L 296.207031 296.207031 L 3.558594 296.207031 Z M 3.558594 3.558594 " clip-rule="nonzero"/></clipPath><clipPath id="id2"><path d="M 127 30 L 223 30 L 223 132 L 127 132 Z M 127 30 " clip-rule="nonzero"/></clipPath><clipPath id="id3"><path d="M 115.84375 9 L 257.789062 40.976562 L 225.816406 182.917969 L 83.871094 150.945312 Z M 115.84375 9 " clip-rule="nonzero"/></clipPath><clipPath id="id4"><path d="M 115.84375 9 L 257.789062 40.976562 L 225.816406 182.917969 L 83.871094 150.945312 Z M 115.84375 9 " clip-rule="nonzero"/></clipPath></defs><g clip-path="url(#id1)"><path fill="#d9d9d9" d="M 149.882812 296.207031 C 110.816406 296.207031 74.03125 281 46.425781 253.339844 C 18.765625 225.734375 3.558594 188.949219 3.558594 149.882812 C 3.558594 110.816406 18.765625 74.03125 46.425781 46.425781 C 74.03125 18.765625 110.816406 3.558594 149.882812 3.558594 C 188.949219 3.558594 225.734375 18.765625 253.339844 46.425781 C 281 74.089844 296.207031 110.816406 296.207031 149.882812 C 296.207031 188.949219 281 225.734375 253.339844 253.339844 C 225.734375 281 188.949219 296.207031 149.882812 296.207031 Z M 149.882812 12.332031 C 113.15625 12.332031 78.59375 26.660156 52.625 52.625 C 26.660156 78.59375 12.332031 113.15625 12.332031 149.882812 C 12.332031 186.609375 26.660156 221.171875 52.625 247.140625 C 78.59375 273.105469 113.15625 287.433594 149.882812 287.433594 C 186.609375 287.433594 221.171875 273.105469 247.140625 247.140625 C 273.105469 221.171875 287.433594 186.609375 287.433594 149.882812 C 287.433594 113.15625 273.105469 78.59375 247.140625 52.625 C 221.171875 26.660156 186.609375 12.332031 149.882812 12.332031 Z M 149.882812 12.332031 " fill-opacity="1" fill-rule="nonzero"/></g><g fill="#5e17eb" fill-opacity="1"><g transform="translate(39.333987, 172.499986)"><g><path d="M 35.671875 -44.8125 C 39.691406 -44.8125 43.328125 -43.84375 46.578125 -41.90625 C 49.835938 -39.96875 52.40625 -37.242188 54.28125 -33.734375 C 56.15625 -30.234375 57.09375 -26.195312 57.09375 -21.625 C 57.09375 -17.125 56.085938 -13.15625 54.078125 -9.71875 C 52.066406 -6.289062 49.289062 -3.640625 45.75 -1.765625 C 42.21875 0.109375 38.269531 1.046875 33.90625 1.046875 C 30.78125 1.046875 27.796875 0.367188 24.953125 -0.984375 C 22.109375 -2.335938 19.820312 -4.160156 18.09375 -6.453125 L 18.09375 20.6875 L 8.421875 20.6875 L 8.421875 -43.78125 L 16.84375 -43.78125 L 17.671875 -36.5 C 19.890625 -38.988281 22.539062 -40.992188 25.625 -42.515625 C 28.71875 -44.046875 32.066406 -44.8125 35.671875 -44.8125 Z M 32.03125 -6.765625 C 34.726562 -6.765625 37.238281 -7.40625 39.5625 -8.6875 C 41.882812 -9.96875 43.738281 -11.734375 45.125 -13.984375 C 46.507812 -16.234375 47.203125 -18.75 47.203125 -21.53125 C 47.203125 -24.363281 46.5625 -26.925781 45.28125 -29.21875 C 44 -31.507812 42.25 -33.3125 40.03125 -34.625 C 37.8125 -35.945312 35.351562 -36.609375 32.65625 -36.609375 C 28.976562 -36.609375 25.835938 -35.582031 23.234375 -33.53125 C 20.640625 -31.488281 18.925781 -28.734375 18.09375 -25.265625 L 18.09375 -18.09375 C 18.644531 -14.769531 20.21875 -12.050781 22.8125 -9.9375 C 25.414062 -7.820312 28.488281 -6.765625 32.03125 -6.765625 Z M 32.03125 -6.765625 "/></g></g></g><g fill="#5e17eb" fill-opacity="1"><g transform="translate(100.994406, 172.499986)"><g><path d="M 52.609375 -43.046875 L 52.609375 0 L 42.953125 0 L 42.953125 -7.078125 C 41.421875 -5.066406 39.195312 -3.207031 36.28125 -1.5 C 33.375 0.195312 30.082031 1.046875 26.40625 1.046875 C 22.320312 1.046875 18.628906 0.160156 15.328125 -1.609375 C 12.035156 -3.378906 9.4375 -5.960938 7.53125 -9.359375 C 5.625 -12.753906 4.671875 -16.8125 4.671875 -21.53125 C 4.671875 -26.238281 5.660156 -30.34375 7.640625 -33.84375 C 9.617188 -37.34375 12.285156 -40.046875 15.640625 -41.953125 C 19.003906 -43.859375 22.734375 -44.8125 26.828125 -44.8125 C 30.503906 -44.8125 33.691406 -44.015625 36.390625 -42.421875 C 39.097656 -40.828125 41.285156 -38.75 42.953125 -36.1875 L 43.671875 -43.046875 Z M 29.015625 -6.96875 C 32.546875 -6.96875 35.578125 -7.953125 38.109375 -9.921875 C 40.640625 -11.898438 42.253906 -14.585938 42.953125 -17.984375 L 42.953125 -26.515625 C 42.117188 -29.566406 40.382812 -32.046875 37.75 -33.953125 C 35.113281 -35.859375 32.097656 -36.8125 28.703125 -36.8125 C 26.140625 -36.8125 23.765625 -36.1875 21.578125 -34.9375 C 19.390625 -33.6875 17.65625 -31.9375 16.375 -29.6875 C 15.09375 -27.4375 14.453125 -24.890625 14.453125 -22.046875 C 14.453125 -19.273438 15.109375 -16.742188 16.421875 -14.453125 C 17.742188 -12.160156 19.515625 -10.335938 21.734375 -8.984375 C 23.953125 -7.640625 26.378906 -6.96875 29.015625 -6.96875 Z M 29.015625 -6.96875 "/></g></g></g><g fill="#5e17eb" fill-opacity="1"><g transform="translate(162.030938, 172.499986)"><g><path d="M 17.78125 -32.859375 C 18.882812 -35.210938 20.457031 -37.289062 22.5 -39.09375 C 24.550781 -40.894531 26.71875 -42.28125 29 -43.25 C 31.289062 -44.226562 33.304688 -44.75 35.046875 -44.8125 L 34.625 -35.140625 C 31.507812 -35.285156 28.6875 -34.660156 26.15625 -33.265625 C 23.625 -31.878906 21.644531 -29.957031 20.21875 -27.5 C 18.800781 -25.039062 18.09375 -22.425781 18.09375 -19.65625 L 18.09375 0 L 8.421875 0 L 8.421875 -43.046875 L 17.046875 -43.046875 Z M 17.78125 -32.859375 "/></g></g></g><g fill="#5e17eb" fill-opacity="1"><g transform="translate(201.127592, 172.499986)"><g><path d="M 52.609375 -43.046875 L 52.609375 0 L 42.953125 0 L 42.953125 -7.078125 C 41.421875 -5.066406 39.195312 -3.207031 36.28125 -1.5 C 33.375 0.195312 30.082031 1.046875 26.40625 1.046875 C 22.320312 1.046875 18.628906 0.160156 15.328125 -1.609375 C 12.035156 -3.378906 9.4375 -5.960938 7.53125 -9.359375 C 5.625 -12.753906 4.671875 -16.8125 4.671875 -21.53125 C 4.671875 -26.238281 5.660156 -30.34375 7.640625 -33.84375 C 9.617188 -37.34375 12.285156 -40.046875 15.640625 -41.953125 C 19.003906 -43.859375 22.734375 -44.8125 26.828125 -44.8125 C 30.503906 -44.8125 33.691406 -44.015625 36.390625 -42.421875 C 39.097656 -40.828125 41.285156 -38.75 42.953125 -36.1875 L 43.671875 -43.046875 Z M 29.015625 -6.96875 C 32.546875 -6.96875 35.578125 -7.953125 38.109375 -9.921875 C 40.640625 -11.898438 42.253906 -14.585938 42.953125 -17.984375 L 42.953125 -26.515625 C 42.117188 -29.566406 40.382812 -32.046875 37.75 -33.953125 C 35.113281 -35.859375 32.097656 -36.8125 28.703125 -36.8125 C 26.140625 -36.8125 23.765625 -36.1875 21.578125 -34.9375 C 19.390625 -33.6875 17.65625 -31.9375 16.375 -29.6875 C 15.09375 -27.4375 14.453125 -24.890625 14.453125 -22.046875 C 14.453125 -19.273438 15.109375 -16.742188 16.421875 -14.453125 C 17.742188 -12.160156 19.515625 -10.335938 21.734375 -8.984375 C 23.953125 -7.640625 26.378906 -6.96875 29.015625 -6.96875 Z M 29.015625 -6.96875 "/></g></g></g><g fill="#000000" fill-opacity="1"><g transform="translate(55.781384, 234.850776)"><g><path d="M 46.703125 -78.203125 L 46.703125 0 L 44.609375 0 L 44.609375 -11.125 C 42.953125 -7.59375 40.441406 -4.75 37.078125 -2.59375 C 33.710938 -0.445312 29.984375 0.625 25.890625 0.625 C 22.222656 0.625 18.828125 -0.273438 15.703125 -2.078125 C 12.585938 -3.878906 10.125 -6.335938 8.3125 -9.453125 C 6.507812 -12.578125 5.609375 -16.015625 5.609375 -19.765625 C 5.609375 -23.710938 6.523438 -27.242188 8.359375 -30.359375 C 10.203125 -33.484375 12.664062 -35.894531 15.75 -37.59375 C 18.84375 -39.289062 22.257812 -40.140625 26 -40.140625 C 29.945312 -40.140625 33.617188 -39.03125 37.015625 -36.8125 C 40.421875 -34.59375 42.953125 -31.71875 44.609375 -28.1875 L 44.609375 -78.203125 Z M 26.109375 -1.140625 C 29.429688 -1.140625 32.515625 -1.9375 35.359375 -3.53125 C 38.203125 -5.125 40.453125 -7.289062 42.109375 -10.03125 C 43.773438 -12.769531 44.609375 -15.804688 44.609375 -19.140625 L 44.609375 -22.5625 C 44.128906 -25.476562 43.003906 -28.128906 41.234375 -30.515625 C 39.460938 -32.910156 37.257812 -34.816406 34.625 -36.234375 C 32 -37.660156 29.160156 -38.375 26.109375 -38.375 C 22.710938 -38.375 19.609375 -37.59375 16.796875 -36.03125 C 13.984375 -34.476562 11.765625 -32.28125 10.140625 -29.4375 C 8.515625 -26.59375 7.703125 -23.367188 7.703125 -19.765625 C 7.703125 -16.359375 8.53125 -13.234375 10.1875 -10.390625 C 11.851562 -7.554688 14.085938 -5.304688 16.890625 -3.640625 C 19.703125 -1.972656 22.773438 -1.140625 26.109375 -1.140625 Z M 26.109375 -1.140625 "/></g></g></g><g fill="#000000" fill-opacity="1"><g transform="translate(112.249092, 234.850776)"><g><path d="M 46.59375 -39.3125 L 46.59375 0 L 44.609375 0 L 44.609375 -11.234375 C 43.160156 -7.765625 40.71875 -4.921875 37.28125 -2.703125 C 33.851562 -0.484375 30.054688 0.625 25.890625 0.625 C 22.222656 0.625 18.828125 -0.273438 15.703125 -2.078125 C 12.585938 -3.878906 10.125 -6.320312 8.3125 -9.40625 C 6.507812 -12.5 5.609375 -15.914062 5.609375 -19.65625 C 5.609375 -23.882812 6.523438 -27.539062 8.359375 -30.625 C 10.203125 -33.707031 12.679688 -36.0625 15.796875 -37.6875 C 18.921875 -39.320312 22.390625 -40.140625 26.203125 -40.140625 C 30.222656 -40.140625 33.894531 -39.015625 37.21875 -36.765625 C 40.550781 -34.515625 43.015625 -31.582031 44.609375 -27.96875 L 45.03125 -39.3125 Z M 26.109375 -1.140625 C 29.503906 -1.140625 32.601562 -1.898438 35.40625 -3.421875 C 38.21875 -4.953125 40.453125 -7.066406 42.109375 -9.765625 C 43.773438 -12.472656 44.609375 -15.492188 44.609375 -18.828125 L 44.609375 -23.09375 C 43.785156 -27.382812 41.617188 -31.003906 38.109375 -33.953125 C 34.609375 -36.898438 30.609375 -38.375 26.109375 -38.375 C 22.710938 -38.375 19.609375 -37.609375 16.796875 -36.078125 C 13.984375 -34.554688 11.765625 -32.375 10.140625 -29.53125 C 8.515625 -26.6875 7.703125 -23.429688 7.703125 -19.765625 C 7.703125 -16.359375 8.53125 -13.234375 10.1875 -10.390625 C 11.851562 -7.554688 14.085938 -5.304688 16.890625 -3.640625 C 19.703125 -1.972656 22.773438 -1.140625 26.109375 -1.140625 Z M 26.109375 -1.140625 "/></g></g></g><g fill="#000000" fill-opacity="1"><g transform="translate(168.612807, 234.850776)"><g><path d="M 5.609375 -19.765625 C 5.609375 -23.503906 6.523438 -26.929688 8.359375 -30.046875 C 10.203125 -33.171875 12.679688 -35.648438 15.796875 -37.484375 C 18.921875 -39.328125 22.359375 -40.25 26.109375 -40.25 C 29.847656 -40.25 33.296875 -39.328125 36.453125 -37.484375 C 39.609375 -35.648438 42.101562 -33.171875 43.9375 -30.046875 C 45.78125 -26.929688 46.703125 -23.503906 46.703125 -19.765625 C 46.703125 -16.015625 45.78125 -12.578125 43.9375 -9.453125 C 42.101562 -6.335938 39.609375 -3.878906 36.453125 -2.078125 C 33.296875 -0.273438 29.847656 0.625 26.109375 0.625 C 22.359375 0.625 18.90625 -0.257812 15.75 -2.03125 C 12.601562 -3.800781 10.125 -6.242188 8.3125 -9.359375 C 6.507812 -12.484375 5.609375 -15.953125 5.609375 -19.765625 Z M 7.703125 -19.765625 C 7.703125 -16.359375 8.515625 -13.234375 10.140625 -10.390625 C 11.765625 -7.554688 13.984375 -5.304688 16.796875 -3.640625 C 19.609375 -1.972656 22.710938 -1.140625 26.109375 -1.140625 C 29.429688 -1.140625 32.492188 -1.972656 35.296875 -3.640625 C 38.109375 -5.304688 40.347656 -7.554688 42.015625 -10.390625 C 43.679688 -13.234375 44.515625 -16.359375 44.515625 -19.765625 C 44.515625 -23.085938 43.679688 -26.1875 42.015625 -29.0625 C 40.347656 -31.945312 38.109375 -34.21875 35.296875 -35.875 C 32.492188 -37.539062 29.429688 -38.375 26.109375 -38.375 C 22.710938 -38.375 19.59375 -37.488281 16.75 -35.71875 C 13.90625 -33.957031 11.6875 -31.632812 10.09375 -28.75 C 8.5 -25.875 7.703125 -22.878906 7.703125 -19.765625 Z M 7.703125 -19.765625 "/></g></g></g><g clip-path="url(#id2)"><g clip-path="url(#id3)"><g clip-path="url(#id4)"><path fill="#545454" d="M 221.683594 89.636719 C 221.730469 89.511719 221.757812 89.382812 221.773438 89.25 C 224.582031 76.769531 222.324219 63.6875 215.488281 52.878906 C 208.652344 42.070312 197.800781 34.417969 185.324219 31.609375 C 172.847656 28.796875 159.765625 31.058594 148.957031 37.894531 C 138.144531 44.726562 130.492188 55.578125 127.683594 68.054688 C 127.636719 68.179688 127.609375 68.308594 127.59375 68.441406 C 127.621094 68.636719 127.683594 68.824219 127.777344 68.996094 L 161.507812 131.136719 L 161.898438 131.226562 L 161.894531 131.226562 C 162.316406 131.707031 162.996094 131.859375 163.582031 131.605469 L 163.972656 131.695312 L 221.085938 90.015625 C 221.3125 89.933594 221.515625 89.804688 221.683594 89.636719 Z M 157.007812 75.445312 L 160.851562 122.707031 L 131.433594 68.660156 C 133.109375 67.433594 137.667969 65.054688 146.65625 67.078125 C 151.714844 68.21875 155.933594 74.007812 156.910156 75.421875 Z M 160.332031 75.816406 C 165.109375 73.347656 170.585938 72.585938 175.855469 73.65625 C 181.09375 74.949219 185.734375 77.988281 189.011719 82.277344 L 164.292969 124.980469 Z M 192.273438 83.386719 C 193.761719 82.53125 200.058594 79.105469 205.117188 80.246094 C 214.105469 82.269531 217.203125 86.378906 218.191406 88.203125 L 168.433594 124.449219 Z M 184.625 34.722656 C 195.503906 37.1875 205.082031 43.605469 211.492188 52.738281 C 217.902344 61.867188 220.691406 73.054688 219.3125 84.125 C 215.683594 80.359375 210.941406 77.859375 205.785156 76.988281 C 200.8125 76.394531 195.78125 77.453125 191.46875 80 C 187.730469 75.21875 182.484375 71.839844 176.585938 70.410156 C 170.640625 69.171875 164.453125 69.976562 159.023438 72.695312 C 156.222656 68.542969 152.132812 65.429688 147.386719 63.832031 C 142.351562 62.410156 136.996094 62.636719 132.101562 64.480469 C 135.605469 53.890625 142.921875 44.976562 152.625 39.476562 C 162.332031 33.976562 173.738281 32.28125 184.625 34.722656 Z M 181.90625 39.222656 C 182.105469 38.328125 182.996094 37.765625 183.890625 37.964844 C 186.15625 38.476562 188.367188 39.195312 190.503906 40.101562 C 191.378906 40.386719 191.863281 41.324219 191.578125 42.203125 C 191.296875 43.082031 190.355469 43.5625 189.480469 43.28125 L 189.1875 43.214844 C 187.242188 42.367188 185.226562 41.695312 183.160156 41.210938 C 182.265625 41.007812 181.703125 40.117188 181.90625 39.222656 Z M 194.355469 43.730469 C 194.597656 43.359375 194.980469 43.101562 195.417969 43.015625 C 195.855469 42.925781 196.308594 43.015625 196.675781 43.265625 C 200.972656 46.136719 204.652344 49.84375 207.484375 54.164062 C 210.316406 58.488281 212.25 63.335938 213.167969 68.425781 C 213.292969 69.308594 212.695312 70.132812 211.816406 70.292969 C 210.9375 70.453125 210.089844 69.890625 209.898438 69.015625 C 209.050781 64.378906 207.28125 59.957031 204.6875 56.015625 C 202.097656 52.078125 198.738281 48.699219 194.8125 46.085938 C 194.433594 45.839844 194.167969 45.449219 194.082031 45.007812 C 193.996094 44.5625 194.09375 44.101562 194.355469 43.730469 Z M 194.355469 43.730469 " fill-opacity="1" fill-rule="nonzero"/></g></g></g></svg>